<svg xmlns="http://www.w3.org/2000/svg" width="22" height="22" viewBox="0 0 22 22" fill="none">
<path fill-rule="evenodd" clip-rule="evenodd" d="M7.33301 17.4167L7.33301 15.5833L9.16634 15.5833L9.16634 17.4167L7.33301 17.4167ZM7.33301 4.58333L7.33301 6.41666L9.16634 6.41666L9.16634 4.58333L7.33301 4.58333ZM10.9997 8.25L10.9997 6.41666L9.16634 6.41666L9.16634 8.25L10.9997 8.25ZM12.833 10.0833L12.833 8.25L10.9997 8.25L10.9997 10.0833L12.833 10.0833ZM12.833 11.9167L14.6663 11.9167L14.6663 10.0833L12.833 10.0833L12.833 11.9167ZM10.9997 13.75L10.9997 11.9167L12.833 11.9167L12.833 13.75L10.9997 13.75ZM10.9997 13.75L9.16634 13.75L9.16634 15.5833L10.9997 15.5833L10.9997 13.75Z" fill="white"/>
</svg>
