<svg xmlns="http://www.w3.org/2000/svg" width="22" height="22" viewBox="0 0 22 22" fill="none">
<path fill-rule="evenodd" clip-rule="evenodd" d="M14.667 4.58334L14.667 6.41667L12.8337 6.41667L12.8337 4.58334L14.667 4.58334ZM14.667 17.4167L14.667 15.5833L12.8337 15.5833L12.8337 17.4167L14.667 17.4167ZM11.0003 13.75L11.0003 15.5833L12.8337 15.5833L12.8337 13.75L11.0003 13.75ZM9.16699 11.9167L9.16699 13.75L11.0003 13.75L11.0003 11.9167L9.16699 11.9167ZM9.16699 10.0833L7.33366 10.0833L7.33366 11.9167L9.16699 11.9167L9.16699 10.0833ZM11.0003 8.25001L11.0003 10.0833L9.16699 10.0833L9.16699 8.25001L11.0003 8.25001ZM11.0003 8.25001L12.8337 8.25001L12.8337 6.41667L11.0003 6.41667L11.0003 8.25001Z" fill="white"/>
</svg>