<svg xmlns="http://www.w3.org/2000/svg" width="32" height="32" viewBox="0 0 32 32" fill="none">
<path fill-rule="evenodd" clip-rule="evenodd" d="M6.6665 6.66666H9.33317V9.33332H6.6665V6.66666ZM11.9998 12H9.33317V9.33332H11.9998V12ZM14.6665 14.6667H11.9998V12H14.6665V14.6667ZM17.3332 14.6667H14.6665V17.3333H11.9998V20H9.33317V22.6667H6.6665V25.3333H9.33317V22.6667H11.9998V20H14.6665V17.3333H17.3332V20H19.9998V22.6667H22.6665V25.3333H25.3332V22.6667H22.6665V20H19.9998V17.3333H17.3332V14.6667ZM19.9998 12V14.6667H17.3332V12H19.9998ZM22.6665 9.33332V12H19.9998V9.33332H22.6665ZM22.6665 9.33332V6.66666H25.3332V9.33332H22.6665Z" fill="white"/>
</svg>