<svg xmlns="http://www.w3.org/2000/svg" width="22" height="22" viewBox="0 0 22 22" fill="none">
<path d="M18.6353 4.17193C17.1909 3.49867 15.6634 3.0205 14.093 2.75C13.8856 3.14498 13.698 3.53996 13.5203 3.94482C11.8515 3.69795 10.1629 3.69795 8.48424 3.94482C8.3065 3.53996 8.11889 3.13511 7.90165 2.75987C6.32172 3.02649 4.80105 3.50046 3.35937 4.17193C0.791689 7.86873 -0.364544 12.364 0.100775 16.8409C1.77691 18.0986 3.65767 19.0574 5.66013 19.6749C6.11436 19.0627 6.50934 18.411 6.84507 17.7198C6.20323 17.4729 5.57126 17.1767 4.96891 16.8113C5.13678 16.6928 5.2849 16.5743 5.43302 16.446C8.9681 18.1246 13.0364 18.1246 16.5715 16.446L17.0257 16.8113C16.4332 17.1668 15.7914 17.4729 15.1495 17.7198C15.4952 18.411 15.8901 19.0528 16.3345 19.6749C18.339 19.0528 20.2251 18.095 21.9037 16.8409C22.3678 12.0321 21.1335 7.865 18.6451 4.17193H18.6353ZM7.34867 14.2933C6.26248 14.2933 5.37377 13.2861 5.37377 12.0518C5.37377 10.8274 6.24273 9.82016 7.34867 9.82016C8.45462 9.82016 9.34333 10.8274 9.32358 12.0518C9.32358 13.2861 8.44475 14.2933 7.34867 14.2933ZM14.6558 14.2933C13.5696 14.2933 12.6809 13.2861 12.6809 12.0518C12.6809 10.8274 13.5499 9.82016 14.6558 9.82016C15.7618 9.82016 16.6505 10.8274 16.6307 12.0518C16.6307 13.2861 15.7618 14.2933 14.6558 14.2933Z" fill="#666666"/>
</svg>