<svg xmlns="http://www.w3.org/2000/svg" width="22" height="22" viewBox="0 0 22 22" fill="white">
  <path d="M5.49967 1.83334H16.4997V3.66667H5.49967V1.83334Z" fill="white"/>
  <path d="M9.16634 12.8333H7.33301V11H9.16634V12.8333Z" fill="white"/>
  <path d="M12.833 12.8333V14.6667H9.16634V12.8333H12.833Z" fill="white"/>
  <path d="M12.833 12.8333V11H14.6663V12.8333H12.833Z" fill="white"/>
  <path d="M5.49967 5.5V3.66667H3.66634V5.5H1.83301V16.5H3.66634V18.3333H5.49967V20.1667H16.4997V18.3333H18.333V16.5H20.1663V5.5H18.333V3.66667H16.4997V5.5H14.6663V7.33334H7.33301V5.5H5.49967ZM7.33301 11V9.16667H14.6663V11H16.4997V5.5H18.333V16.5H16.4997V18.3333H14.6663V14.6667H12.833V18.3333H9.16634V14.6667H5.49967V16.5H7.33301V18.3333H5.49967V16.5H3.66634V14.6667H5.49967V12.8333H3.66634V5.5H5.49967V11H7.33301Z" fill="white"/>
</svg>