<svg xmlns="http://www.w3.org/2000/svg" width="20" height="20" viewBox="0 0 20 20" fill="none">
<path fill-rule="evenodd" clip-rule="evenodd" d="M12.5 0.833328L12.5 5.83333L7.5 5.83333L7.5 0.833328L12.5 0.833328ZM10.8333 2.49999L9.16667 2.49999L9.16667 4.16666L10.8333 4.16666L10.8333 2.49999ZM12.5 7.49999L12.5 12.5L7.5 12.5L7.5 7.49999L12.5 7.49999ZM10.8333 9.16666L9.16667 9.16666L9.16667 10.8333L10.8333 10.8333L10.8333 9.16666ZM12.5 14.1667L12.5 19.1667L7.5 19.1667L7.5 14.1667L12.5 14.1667ZM10.8333 15.8333L9.16667 15.8333L9.16667 17.5L10.8333 17.5L10.8333 15.8333Z" fill="white"/>
</svg>