<svg xmlns="http://www.w3.org/2000/svg" width="22" height="22" viewBox="0 0 22 22" fill="none">
<path fill-rule="evenodd" clip-rule="evenodd" d="M3.66634 1.83344H1.83301V9.16677H3.66634V1.83344ZM18.3333 1.83344H20.1666V9.16677H18.3333V1.83344ZM12.8329 7.33338H9.16643V1.83344H7.33323H7.33309H3.66656V3.66677H7.33309V7.33338H3.66656V9.16671H7.33309V12.8334H3.66656V14.6667H7.33309V18.3334H3.66656V20.1667H7.33309V20.1668H9.16643V14.6667H12.8329V20.1668H14.6662V14.6667H18.3332V12.8334H14.6662V9.16671H18.3332V7.33338H14.6662V1.83344H12.8329V7.33338ZM9.16643 12.8334V9.16671H12.8329V12.8334H9.16643ZM18.3331 1.83344H14.6664V3.66677H18.3331V1.83344ZM1.83301 12.8334H3.66634V20.1667H1.83301V12.8334ZM14.6664 18.3334H18.3331V20.1667H14.6664V18.3334ZM20.1666 12.8334H18.3333V20.1667H20.1666V12.8334Z" fill="white"/>
</svg>