<svg xmlns="http://www.w3.org/2000/svg" width="22" height="22" viewBox="0 0 22 22" fill="none">
<path d="M5.50016 1.83325H16.5002V3.66659H5.50016V1.83325Z" fill="#a4fb0e"/>
<path d="M9.16683 12.8333H7.3335V10.9999H9.16683V12.8333Z" fill="#a4fb0e"/>
<path d="M12.8335 12.8333V14.6666H9.16683V12.8333H12.8335Z" fill="#a4fb0e"/>
<path d="M12.8335 12.8333V10.9999H14.6668V12.8333H12.8335Z" fill="#a4fb0e"/>
<path d="M5.50016 5.49992V3.66659H3.66683V5.49992H1.8335V16.4999H3.66683V18.3333H5.50016V20.1666H16.5002V18.3333H18.3335V16.4999H20.1668V5.49992H18.3335V3.66659H16.5002V5.49992H14.6668V7.33325H7.3335V5.49992H5.50016ZM7.3335 10.9999V9.16658H14.6668V10.9999H16.5002V5.49992H18.3335V16.4999H16.5002V18.3333H14.6668V14.6666H12.8335V18.3333H9.16683V14.6666H5.50016V16.4999H7.3335V18.3333H5.50016V16.4999H3.66683V14.6666H5.50016V12.8333H3.66683V5.49992H5.50016V10.9999H7.3335Z" fill="#a4fb0e"/>
</svg>