<svg xmlns="http://www.w3.org/2000/svg" width="22" height="22" viewBox="0 0 22 22" fill="none">
  <g clip-path="url(#clip0_71_1393)">
    <path fill-rule="evenodd" clip-rule="evenodd" d="M10.0833 1.83334H4.58333V3.66668H2.75022V9.16668H4.58356V3.66668H10.0833V1.83334ZM10.0833 9.16668H4.58333V11H10.0833V9.16668ZM10.0836 3.66668H11.9169V9.16668H10.0836V3.66668ZM0 14.6667H1.83333V18.3333H12.8333V20.1667H1.83333H0V14.6667ZM1.83333 14.6667H12.8333V12.8333H1.83333V14.6667ZM14.6669 14.6667H12.8336V20.1667H14.6669V14.6667ZM13.75 1.83334H17.4167V3.66668H13.75V1.83334ZM17.4167 9.16668H13.75V11H17.4167V9.16668ZM17.4169 3.66668H19.2502V9.16668H17.4169V3.66668ZM22.0002 14.6667H20.1669V18.3333H16.5V20.1667H22V18.3333H22.0002V14.6667ZM16.5 12.8333H20.1667V14.6667H16.5V12.8333Z" fill="white"/>
  </g>
  <defs>
    <clipPath id="clip0_71_1393">
      <rect width="22" height="22" fill="white"/>
    </clipPath>
  </defs>
</svg>