<svg xmlns="http://www.w3.org/2000/svg" width="22" height="22" viewBox="0 0 22 22" fill="none">
  <path d="M7.33301 4.58331H9.16634V6.41665H7.33301V4.58331Z" fill="black"/>
  <path d="M5.49968 6.41665H7.33301V8.24998H5.49968V6.41665Z" fill="black"/>
  <path d="M3.66634 8.24998H5.49968V10.0833H3.66634V8.24998Z" fill="black"/>
  <path d="M1.83301 10.0833H3.66634V11.9166H1.83301V10.0833Z" fill="black"/>
  <path d="M3.66634 11.9166H5.49968V13.75H3.66634V11.9166Z" fill="black"/>
  <path d="M5.49968 13.75H7.33301V15.5833H5.49968V13.75Z" fill="black"/>
  <path d="M7.33301 15.5833H9.16634V17.4166H7.33301V15.5833Z" fill="black"/>
  <path d="M14.6663 4.58331H12.833V6.41665H14.6663V4.58331Z" fill="black"/>
  <path d="M16.4997 6.41665H14.6663V8.24998H16.4997V6.41665Z" fill="black"/>
  <path d="M18.333 8.24998H16.4997V10.0833H18.333V8.24998Z" fill="black"/>
  <path d="M20.1663 10.0833H18.333V11.9166H20.1663V10.0833Z" fill="black"/>
  <path d="M18.333 11.9166H16.4997V13.75H18.333V11.9166Z" fill="black"/>
  <path d="M16.4997 13.75H14.6663V15.5833H16.4997V13.75Z" fill="black"/>
  <path d="M14.6663 15.5833H12.833V17.4166H14.6663V15.5833Z" fill="black"/>
</svg>