<svg xmlns="http://www.w3.org/2000/svg" width="114" height="30" viewBox="0 0 114 30" fill="none">
  <path d="M71.9564 13.3954C71.9429 14.4001 71.9429 15.4028 71.9564 16.4056C71.9699 17.2629 72.3507 17.6169 73.2277 17.6226C74.3604 17.6284 75.4932 17.6188 76.6241 17.6265C77.4799 17.6341 77.8569 18.013 77.8569 18.8722C77.8569 22.1082 77.8569 25.3442 77.8569 28.5763C77.8569 29.4355 77.5242 29.7761 76.6722 29.7819C75.3528 29.7914 74.0373 29.7914 72.7199 29.7819C71.916 29.7761 71.5621 29.4164 71.5602 28.6107C71.5564 25.5374 71.5602 22.468 71.5602 19.3966C71.5602 18.4283 71.1929 18.0532 70.2313 18.0475C69.1196 18.0398 68.0061 18.0475 66.8964 18.0341C66.0136 18.0264 65.6462 17.6686 65.6405 16.8132C65.6347 15.5444 65.6328 14.2738 65.6405 13.0051C65.6443 12.1286 66.0347 11.7478 66.9387 11.7401C68.0484 11.7325 69.16 11.7401 70.2736 11.7325C71.1967 11.7268 71.5602 11.3517 71.5621 10.414C71.5621 9.45144 71.5679 8.4908 71.5621 7.52824C71.5583 6.69581 71.1525 6.29204 70.312 6.28821C67.3464 6.28438 64.3846 6.28438 61.4209 6.28821C60.5112 6.28821 60.1804 6.63266 60.1804 7.56652C60.1804 14.4671 60.1804 21.3676 60.1804 28.2663C60.1804 29.4833 59.8765 29.7819 58.6553 29.7838C57.586 29.7838 56.5147 29.7838 55.4435 29.7838C54.0895 29.7799 53.8164 29.5082 53.8164 28.1782V17.7987C53.8164 14.3178 53.8164 10.8369 53.8164 7.35602C53.8164 6.2021 54.1587 5.86147 55.3262 5.85956C56.3974 5.85573 57.4667 5.86339 58.538 5.85573C59.3823 5.8519 59.7227 5.50171 59.7227 4.65206C59.7265 3.52684 59.7169 2.39971 59.7265 1.27258C59.7342 0.390399 60.1208 0.0095868 61.0151 0.00767317C64.2269 0.00193227 67.4368 1.86421e-05 70.6486 0.00767317C71.6525 0.00767317 71.9526 0.331077 71.9564 1.34913C71.9602 2.43416 71.9506 3.5211 71.9622 4.60613C71.9699 5.50171 72.3449 5.85956 73.2507 5.86147C74.3624 5.8653 75.4759 5.85573 76.5856 5.86147C77.4953 5.86913 77.8646 6.24037 77.8646 7.12829C77.8684 8.41808 77.8704 9.70787 77.8646 10.9977C77.8607 11.7689 77.4626 12.1688 76.6895 12.1765C75.5394 12.1898 74.3854 12.1765 73.2315 12.1822C72.3603 12.1879 71.9718 12.5534 71.9602 13.3993L71.9564 13.3954Z" fill="white"/>
  <path d="M24.0274 18.9392C24.0313 20.2079 24.0313 21.4786 24.0274 22.7473C24.0236 23.5836 23.6793 23.9319 22.8254 23.9414C21.7753 23.9548 20.7233 23.9472 19.6751 23.9453C18.4635 23.9453 18.1154 24.2802 18.1154 25.4609C18.1154 26.5038 18.1154 27.5486 18.1154 28.5935C18.1115 29.4757 17.773 29.8278 16.8903 29.8335C15.2632 29.8469 13.6362 29.8373 12.011 29.8373C10.4051 29.8373 8.7992 29.8392 7.1933 29.8335C6.26438 29.8297 5.89896 29.4527 5.89511 28.5208C5.89127 27.3324 5.89511 26.144 5.89511 24.9576C5.89511 23.9032 6.24514 23.5491 7.28562 23.5472C10.3128 23.5472 13.34 23.5472 16.3633 23.5472C17.3615 23.5472 17.7096 23.2104 17.7173 22.2268C17.725 21.2853 17.723 20.3438 17.7173 19.4023C17.7115 18.4244 17.3672 18.0857 16.3633 18.0838C13.4611 18.0781 10.559 18.0838 7.6568 18.0838C6.1259 18.0838 5.89511 17.8599 5.89511 16.3615C5.89511 15.3799 5.89896 14.3962 5.89511 13.4126C5.88934 12.5726 5.54124 12.2243 4.68924 12.2166C3.53722 12.209 2.38328 12.2166 1.23126 12.2109C0.423498 12.2071 0.0292341 11.8473 0.0196179 11.0704C0.000385466 9.74038 -0.00153777 8.40849 0.0157714 7.0766C0.0253876 6.28627 0.398496 5.91694 1.20433 5.90355C2.37751 5.88441 3.55068 5.90355 4.72386 5.89398C5.52393 5.88824 5.89319 5.52082 5.89704 4.73049C5.90281 3.58614 5.89319 2.43796 5.90088 1.28978C5.90665 0.438218 6.28745 0.0459236 7.1433 0.0440099C10.3955 0.0363554 13.6477 0.0363554 16.9018 0.0440099C17.7903 0.0440099 18.1135 0.392291 18.1192 1.28978C18.1192 2.55852 18.1192 3.82917 18.1192 5.09791C18.1154 5.96478 17.7634 6.32263 16.8787 6.32263C13.8304 6.32837 10.784 6.32263 7.73758 6.32646C6.64902 6.32646 6.35092 6.62499 6.349 7.71002C6.34515 8.63239 6.34323 9.55476 6.349 10.4752C6.35284 11.455 6.66441 11.7688 7.63372 11.7707C10.6397 11.7746 13.6458 11.7746 16.6499 11.7765C17.8057 11.7765 18.1192 12.0865 18.1231 13.2213C18.1231 14.2642 18.1192 15.309 18.1231 16.3539C18.1288 17.2763 18.5116 17.6552 19.4366 17.6609C20.5483 17.6666 21.6618 17.6609 22.7715 17.6647C23.6755 17.6705 24.0293 18.0321 24.0313 18.9392H24.0274Z" fill="white"/>
  <path d="M46.208 18.1642C47.3197 18.1566 48.4332 18.1681 49.5429 18.1604C50.4795 18.1528 50.8373 17.7834 50.8373 16.8438C50.8373 13.671 50.8373 10.4963 50.8373 7.32352C50.8373 6.36287 50.4642 5.98206 49.5025 5.9744C48.3909 5.96675 47.2773 5.97823 46.1676 5.9744C45.3079 5.97058 44.931 5.59933 44.9271 4.74011C44.9195 3.59385 44.931 2.44758 44.9214 1.2994C44.9156 0.499505 44.5598 0.130174 43.752 0.128261C40.4575 0.114865 37.163 0.114865 33.8704 0.124434C33.0781 0.124434 32.7107 0.509073 32.705 1.30706C32.6953 2.47437 32.7088 3.63977 32.7011 4.80709C32.6953 5.59551 32.3203 5.96675 31.5241 5.97249C30.3721 5.98015 29.2181 5.97249 28.0661 5.97632C27.0218 5.98206 26.666 6.34374 26.6641 7.39049C26.6641 9.92988 26.6641 12.4693 26.6641 15.0067C26.6641 17.5672 26.6641 20.1257 26.6641 22.6842C26.6641 23.6678 27.0141 24.018 27.9969 24.0257C29.1297 24.0314 30.2624 24.0161 31.3933 24.0295C32.3299 24.0429 32.6934 24.4218 32.6953 25.3461C32.6992 26.4732 32.6915 27.5984 32.6992 28.7256C32.705 29.5293 33.0646 29.9025 33.8589 29.9139C35.1763 29.9273 36.4937 29.9273 37.8112 29.9139C38.6535 29.9063 39.0036 29.5446 39.0093 28.7083C39.017 27.6042 39.0093 26.4981 39.0132 25.3939C39.017 24.4218 39.3786 24.0467 40.3441 24.0333C41.2903 24.02 42.2365 24.02 43.1847 24.0333C44.1444 24.0467 44.5213 24.4256 44.5271 25.3901C44.5348 26.5172 44.5194 27.6444 44.531 28.7696C44.5386 29.535 44.9021 29.8986 45.6714 29.9044C47.0081 29.9139 48.3467 29.9139 49.6852 29.9005C50.4699 29.8948 50.8353 29.5121 50.8411 28.7141C50.8469 27.4243 50.8469 26.1345 50.8411 24.8447C50.8373 24.0333 50.443 23.6391 49.6333 23.6334C48.4832 23.6277 47.3293 23.6372 46.1773 23.6277C45.3253 23.6219 44.9368 23.2315 44.931 22.3819C44.9233 21.4002 44.9233 20.4166 44.931 19.433C44.9368 18.547 45.3137 18.1738 46.2157 18.1681L46.208 18.1642ZM44.5213 16.4592C44.5213 17.3624 44.1444 17.7337 43.2482 17.7394C42.1154 17.7471 40.9826 17.7394 39.8517 17.7432C38.9863 17.749 38.6266 18.1145 38.6228 18.9871C38.617 20.0913 38.6228 21.1954 38.6189 22.3015C38.6189 23.2564 38.242 23.6238 37.265 23.6277C36.361 23.6277 35.4552 23.6277 34.5474 23.6277C33.4512 23.6238 33.0992 23.2832 33.0973 22.2058C33.0935 19.81 33.0973 17.416 33.0973 15.0221C33.0973 12.6281 33.0973 10.2322 33.0973 7.83828C33.0973 6.75517 33.4512 6.4088 34.5397 6.4088C37.4207 6.4088 40.3018 6.4088 43.1828 6.4088C44.1675 6.4088 44.5233 6.75134 44.5252 7.74069C44.5329 10.6456 44.529 13.5543 44.5252 16.4592H44.5213Z" fill="white"/>
  <path d="M101.763 27.097H93.7374L92.9546 29.69H90.3486L94.1124 17.2036H101.386L105.15 29.69H102.544L101.763 27.097ZM101.098 24.8868L99.4763 19.5076H96.026L94.4047 24.8868H101.098Z" fill="#A4FB0E"/>
  <path d="M110.76 19.3698V27.5257H113.218V29.6919H106.125V27.5257H108.583V19.3698H106.125V17.2036H113.218V19.3698H110.76Z" fill="#A4FB0E"/>
  <path d="M81.6991 28.3428C81.4241 27.187 82.1453 26.0273 83.307 25.7537C84.4686 25.48 85.6341 26.1957 85.9072 27.3535C86.1822 28.5093 85.4629 29.669 84.2993 29.9407C83.1377 30.2144 81.9722 29.4987 81.6972 28.3409L81.6991 28.3428Z" fill="#A4FB0E"/>
</svg>